<svg version="1.2" xmlns="http://www.w3.org/2000/svg" viewBox="0 0 785 809" width="785" height="809"><style>.a{fill:#303289}</style><path fill-rule="evenodd" class="a" d="m422.9 0.1c65.8 0 128.1 15 183.6 41.8l-10.8 23c-52.2-25.3-110.9-39.4-172.8-39.4-219.5 0-397.5 177.9-397.5 397.4 0 161.1 95.8 299.8 233.6 362.3l-10.7 23c-146.4-66.5-248.3-214-248.3-385.3 0-233.5 189.4-422.8 422.9-422.8zm0 60.7c200 0 362.1 162.1 362.1 362.1 0 200-162.1 362.2-362.1 362.2-200 0-362.1-162.2-362.1-362.2 0-200 162.1-362.1 362.1-362.1z"/></svg>