<svg version="1.2" xmlns="http://www.w3.org/2000/svg" viewBox="0 0 372 486" width="372" height="486"><style>.a{fill:#303289}.b{fill:#f57d05}</style><path fill-rule="evenodd" class="a" d="m276.4 0.5c8.9 2.9 15.9 7.9 18.3 17.5 0.9 3.3 0.9 6.8 1.4 10.9 3.6 0 7.3-0.2 11 0 8.4 0.5 17 0.1 25.1 1.9 22.9 5.2 39 25.6 39.4 49 0.2 11.6 0.1 23.1 0.1 34.6q-0.2 157.9-0.3 315.9c-0.1 22.5-9.3 39.8-29.9 49.7-6.7 3.2-14.6 5.1-22 5.2-89.2 0.3-178.4 0.3-267.6 0.1-29.3-0.1-51.6-23.4-51.6-53.2-0.1-76.4 0-152.8 0.1-229.2 0-39.8 0.1-79.5 0.2-119.3 0-22.8 9.7-40.1 30.7-49.7 7-3.1 15.3-4 23-4.8 7.2-0.8 14.5-0.2 22.1-0.2 0.1-1.9 0.1-3.5 0.2-5 0.7-10.6 6-18 16-22.1 1-0.3 1.9-0.8 2.9-1.3q90.5 0 180.9 0zm-199.8 56.8c-7.6 0-14.5 0-21.5 0-16 0.1-26 9.7-26 25.6q-0.2 174.7-0.3 349.5c0 14.6 10.2 24.5 24.9 24.6 13.4 0.1 26.7 0 40 0 74.3 0 148.6 0 222.9 0.1 7.7 0 14.4-2 19.7-7.7 5.3-5.5 6.5-12.3 6.6-19.7 0-111.9 0.1-223.8 0.2-335.7 0-4.6 0.2-9.2 0-13.7-0.6-10.1-5.5-17.6-15-21.1-10.5-3.9-21.5-1.1-32.3-2 0.9 19.7-12.1 29.2-29.7 28.8-35.3-0.8-70.5-0.3-105.7-0.3-19.9 0-39.7 0.1-59.6 0-13.4-0.1-23.4-9.7-24.2-23-0.1-1.6 0-3.2 0-5.4zm190.2-28.1c-53.9 0-107.5 0-161.3 0 0 9.5 0 18.7 0 27.8 54 0 107.7 0 161.3 0 0-9.5 0-18.5 0-27.8z"/><path class="b" d="m241.7 379.3q-24.5 0.1-49 0c-9.6 0-16.2-5.8-16.2-14.1 0-8.4 6.6-14.3 16.1-14.3q49.3 0 98.5 0c9.6 0 16 5.9 15.8 14.4-0.1 8.4-6.4 14-15.8 14-16.5 0.1-33 0-49.4 0zm0-189.4c-16.3 0-32.7 0-49 0-9.6 0-16.2-5.8-16.2-14.2 0-8.3 6.6-14.2 16.2-14.2q49 0 98 0c9.4 0 16.1 6.1 15.9 14.4-0.1 8.2-6.7 14-15.9 14-16.3 0-32.7 0-49 0zm0 94.7q-24.5 0-49 0c-9.6 0-16.2-5.8-16.2-14.2 0-8.3 6.6-14.2 16.2-14.2q49 0 98 0c9.4 0 16.1 6.1 15.9 14.5-0.2 8.2-6.7 13.9-15.9 13.9-16.4 0.1-32.7 0-49 0zm-144.8-12.4c11.4-11.4 22.1-22.2 32.8-32.9 4.2-4.2 9.3-5.4 14.9-3.7 5.2 1.7 8.4 5.5 9.5 10.9 1 4.8-0.5 9.1-3.9 12.5-14.2 14.3-28.4 28.5-42.7 42.5-6.4 6.2-14.4 6.1-20.9 0q-8.9-8.5-17.4-17.4c-5.7-6-5.6-14.5-0.1-20 5.4-5.5 14.1-5.6 20.1-0.1 2.6 2.3 4.8 5.1 7.7 8.2zm-0.5 95c11.5-11.5 22.1-21.9 32.5-32.5 3.4-3.4 7.4-5.5 12.3-5 5.7 0.5 9.8 3.4 12.1 8.6 2.2 5.3 1.5 10.6-2.4 14.6-14.7 14.9-29.5 29.7-44.5 44.2-5.3 5.1-13 5.1-18.6 0.1-6.7-6.2-13.3-12.7-19.5-19.4-5-5.5-4.4-13.8 0.7-18.9 5.1-5.3 13.7-5.8 19.4-0.9 2.9 2.6 5.2 5.9 8 9.2zm0.5-197.2c11-11 21.3-21.5 31.9-31.6 2.5-2.4 6-4.4 9.3-5.1 6.2-1.4 11.9 1.9 14.6 7.3 2.9 5.7 2.2 11.7-2.6 16.5-9.9 10.1-19.9 19.9-29.9 29.9-4.2 4.2-8.4 8.5-12.8 12.6-6.5 6.1-14.4 6.1-20.8-0.1-5.9-5.7-11.8-11.5-17.5-17.4-5.6-5.8-5.5-14.5 0-20 5.5-5.5 14.1-5.6 20.1 0 2.6 2.3 4.9 5 7.7 7.9z"/></svg>