<svg version="1.2" xmlns="http://www.w3.org/2000/svg" viewBox="0 0 489 500" width="489" height="500"><style>.a{fill:#303289}.b{fill:#f57d05}</style><path fill-rule="evenodd" class="a" d="m451.5 190c-0.1 6 1 10.6 5.7 14.9 6.1 5.7 8.1 13.6 8.1 21.9-0.1 20 0 40 0 60 0 1.8 0 3.6 0 6.1 2.6 0 5-0.1 7.4 0 9.2 0.3 16.1 6.7 16.2 15.7q0.2 38.3 0 76.6c-0.1 8.4-6.3 14.7-14.7 15.5-2.8 0.3-5.6 0.1-8.9 0.1 0 2.2 0 4 0 5.7 0 19.9 0 39.7-0.1 59.6 0 20.6-13.4 33.9-34.2 33.9q-198.3 0-396.7 0c-20.8 0-34.2-13.3-34.2-33.9-0.1-79.4 0-158.8-0.1-238.2 0-13.2 5-23.2 16.5-30.2 1.1-0.7 2.1-2.7 2.2-4.2m64.3-6.3c-0.7 7.4-2.2 8.3-9.7 5.5m61.8-3.2c-2.2 3.2-4.5 4.5-8.4 4.4-8.2-0.3-16.4-0.1-24.6-0.1-1.7-0.1-3.4-0.3-5.2-0.4m-82.1 66.4c0 58.3 0 116.2 0 174.6 2.1 0 3.9 0 5.7 0 10.5 0 21-0.1 31.5 0 5.4 0 8.2 2.6 8.3 6.9 0 4.5-2.8 7.1-8.1 7.1-10.7 0.1-21.4 0.1-32.1 0.1-1.7 0-3.4 0-5.3 0 0 8-0.8 15.4 0.3 22.6 0.5 3.9 3.3 8.5 6.5 10.8 3.6 2.4 8.8 3.6 13.3 3.6 131.8 0.2 263.5 0.2 395.2 0.1 2 0 4 0 5.9-0.2 7.1-0.9 13.7-6.6 14.3-13.6 0.7-7.5 0.2-15.2 0.2-23.3-2.4 0-4.5 0-6.6 0q-169.7 0-339.5 0c-2 0-4 0-5.9-0.2-4.1-0.4-6.3-3-6.3-6.8 0-3.9 2.1-6.5 6.2-7 1.9-0.2 3.9-0.1 5.9-0.1q170 0 340 0 3.1 0 6.2 0c0-11.6 0-22.2 0-33.5-2.2 0-4.2 0-6.1 0-20.2 0-40.4 0.2-60.6 0-36.5-0.4-62-31.3-54.5-65.9 5.1-23.7 26.9-41.7 51.5-42 21.5-0.3 43-0.1 64.5-0.1q2.6 0 5.2 0c0-11.5 0-22.2 0-33.1-145.3 0-290.3 0-435.7 0zm0-14.9c145.3 0 290.4 0 436 0 0-5.5 0-10.7 0-15.8-0.1-14.8-6.4-21.1-21.3-21.1q-196.9 0-393.8 0c-1.6 0-3.3 0-4.9 0.1-8 0.6-15.2 6.6-15.9 14.2-0.6 7.4-0.1 14.9-0.1 22.6zm200.6-58.8c-1.7 7.7-1.7 7.7-9.7 7.7-8.9 0-17.8 0-27.7 0 1.4-2.2 2.2-3.4 3-4.6m151 0.6c0.5 3.1 1.4 4.1 4.5 4 5.6-0.2 11.2 0.2 16.7-0.2 2-0.1 4.5-1.3 5.6-2.8m66.3 195.9q0 0 0 0c14.6 0 29.2-0.2 43.8 0.1 4.8 0.1 5.7-1.6 5.7-5.8-0.2-22.8-0.2-45.6 0-68.3 0-4.6-1.5-5.8-5.9-5.7-27.9 0.1-55.8 0-83.7 0.1-3.9 0-7.9 0.3-11.7 1.2-19.5 4.6-33 23-30.9 41.8 2.4 21.1 18.8 36.3 39.8 36.5 14.3 0.2 28.6 0.1 42.9 0.1zm-260.3-198.9c-3.9 6-8.3 6.8-14.8 5.5 1-1.6 1.8-3 2.7-4.3m224.9 0c-0.9 1.3-1.6 2.6-2.7 4.3 6.2 1 10.7 0.8 14.6-5.1m42.9-5.9c4.6 1.2 5.2 6.4 4.8 11.2-11.5 0-22.4 0-34.2 0 3-4.3 5.5-8 8.1-11.7m-352.2 10c-0.1 0.7-1.5 1.8-2.3 1.8-7.6 0.2-15.3 0.1-22.8 0.1m379.4 153.3c-0.1 16-13.2 28.9-29.2 28.8-16-0.1-29.1-13.2-29-29.1 0-15.9 13.2-28.7 29.3-28.6 16.2 0.1 29 12.8 28.9 28.9zm-29.2 14.4c8.1 0.1 14.9-6.4 15-14.4 0.1-7.8-6.7-14.7-14.7-14.8-8-0.1-14.7 6.5-14.8 14.5-0.1 8.1 6.3 14.7 14.5 14.7z"/><path fill-rule="evenodd" class="b" d="m16.5 197.7c1.1-0.7 2.1-2.7 2.2-4.2 0.8-18.8 9.7-27.3 28.8-27.3 4.4 0 8.8 0 13.9 0 0.9-8.8 1.8-17.3 2.7-25.8 2.7-27.3 5.3-54.7 8.1-82 1.5-13.8 12.1-22.4 26.4-21.2 21.1 1.8 42.1 4.1 63.2 6.2 15 1.4 30 3 45.1 4.4 5.8 0.6 9.1 3.4 8.8 7.7-0.3 4.7-4.3 7.1-10.2 6.5q-53.4-5.3-106.8-10.4c-8.3-0.8-11.3 1.6-12.2 9.6-2.9 28.3-5.7 56.6-8.6 84.9q-2.3 23.4-4.6 46.6c7.5 2.8 9 1.9 9.7-5.5 2.6-26.3 5.2-52.5 7.8-78.7 0.8-7.3 4.3-12.5 11.2-15.3 8-3.2 14.4-8.3 19.2-15.4 4.2-6.1 10-8.6 17.4-7.8 17.3 1.8 34.6 3.4 51.9 5.1 5.8 0.5 9 3.6 8.5 8-0.6 4.4-4.1 6.6-10.1 6-16.6-1.6-33.3-3.2-49.9-4.9-3.2-0.4-5.2 0.4-7 3.1-5.5 8-12.8 14-21.7 17.7-3.9 1.6-5.1 3.9-5.5 7.6-2.5 26.7-5.2 53.4-7.9 80.8 1.8 0.1 3.5 0.3 5.2 0.4 8.2 0 16.4-0.2 24.6 0.1 3.9 0.1 6.2-1.2 8.4-4.4 39.8-58.2 79.8-116.2 119.6-174.3 4.8-7 10.1-12.7 18.4-15.2q4.4 0 8.9 0c10.4 6.4 21 12.4 31.2 19.2 40.4 27.1 80.6 54.4 120.9 81.6 14.9 10 17.2 22.4 7.1 37.1q-9.1 13.3-18.2 26.6c-0.2 0.2-0.2 0.6-0.4 1.3 2.9 0.3 5.8 0.4 8.5 0.9 12 2 20.5 11.4 20.4 23.3-0.1 6 1 10.6 5.7 14.9m-27.7 3.1q-196.9 0-393.8 0c-1.6 0-3.3 0-4.9 0.1-8 0.6-15.2 6.6-15.9 14.2m163.1-28.5c9.9 0 18.8 0 27.7 0 8 0 8 0 9.7-7.7 6.2-28.1 31.3-48 59.2-47 29.7 1.1 53.2 21.8 57.4 50.7 0.5 3.1 1.4 4.1 4.5 4 5.6-0.2 11.2 0.2 16.7-0.2 2-0.1 4.5-1.3 5.6-2.8q12.8-17.9 24.9-36.3c1-1.5 1.1-4.4 0.3-6-4.4-9.2-6.5-18.8-5.5-28.9 0.3-3.2-0.8-5-3.4-6.8q-35.7-23.9-71.3-48.1c-2.4-1.6-4.4-1.9-7.1-0.5-8.9 4.5-18.3 6.3-28.2 5.2-3.9-0.4-5.9 1-8 4-26.4 38.7-53 77.2-79.5 115.8-0.8 1.2-1.6 2.4-3 4.6zm196.9-0.5c6.2 1 10.7 0.8 14.6-5.1 13-19.9 26.8-39.3 40.3-59 4.9-7.2 4.1-11.2-3.2-16.2q-70.6-47.7-141.2-95.3c-7.9-5.4-11.7-4.6-17.1 3.2q-57.8 84-115.6 168.1c-0.9 1.3-1.7 2.7-2.7 4.3 6.5 1.3 10.9 0.5 14.8-5.5 11-16.9 22.7-33.4 34.2-50.1 16.9-24.6 33.9-49.1 50.7-73.8 4-5.8 9.2-9.5 16.4-8.7 9.3 1 18-0.5 26.3-4.7 5.9-2.9 11.8-2.6 17.2 1.1q38.2 25.6 76.1 51.3c5.5 3.7 7.8 9.2 7.1 15.7q-1.5 12.8 4.5 24.1c3.7 6.9 3.1 13.3-1.4 19.7-6.1 8.8-12.2 17.7-18.3 26.6-0.9 1.3-1.6 2.6-2.7 4.3zm-145.9 0.1c29.8 0 59.2 0 88.6 0-0.8-21.5-20.9-39.8-43.5-40-23.3-0.3-43.5 17.5-45.1 40zm208.2 0.1c0.4-4.8-0.2-10-4.8-11.2-6.5-1.6-13.5-1.1-20.3-1.4-0.3-0.1-0.8 0.5-1 0.9-2.6 3.7-5.1 7.4-8.1 11.7 11.8 0 22.7 0 34.2 0zm-403.4 0.2c7.5 0 15.2 0.1 22.8-0.1 0.8 0 2.2-1.1 2.3-1.8 0.5-3.6 0.7-7.3 1-11.2-5.8 0-11-0.1-16.2 0-7.6 0.2-11.3 4.9-9.9 13.1z"/></svg>