<svg width="792" height="824" viewBox="0 0 792 824" fill="none" xmlns="http://www.w3.org/2000/svg">
<rect width="792" height="824" fill="#1E1E1E"/>
<g clip-path="url(#clip0_0_1)">
<path fill-rule="evenodd" clip-rule="evenodd" d="M426.6 0.799988C503.1 0.799988 575 21.1 637.1 56.4L606.1 68.8C552.1 41.7 491.1 26.4 426.6 26.4C205.6 26.4 26.4 205.7 26.4 426.8C26.4 596.8 132.2 742 281.6 800.1L271.4 823.6C113 761.5 0.799988 607.3 0.799988 426.8C0.799988 191.5 191.5 0.799988 426.6 0.799988ZM426.6 62C628 62 791.2 225.3 791.2 426.8C791.2 628.3 628 791.6 426.6 791.6C225.2 791.6 62 628.3 62 426.8C62 225.3 225.2 62 426.6 62Z" fill="#303289"/>
</g>
<g clip-path="url(#clip1_0_1)">
<path fill-rule="evenodd" clip-rule="evenodd" d="M192.7 273.499L325.7 196.397C330.9 193.256 335.45 190.773 340.6 187.835C349.05 182.972 410.501 145.738 415.751 145.738C425.501 145.738 432.351 151.31 442.251 157.339L494.201 187.481C499.501 190.621 503.801 192.85 509.051 196.042C542.301 216.103 578.651 235.91 612.351 255.971L649.151 277.805C658.351 287.075 647.701 303.438 633.651 295.333L446.301 186.569C441.851 184.137 422.251 171.219 417.701 171.219C412.701 171.219 366.05 199.892 361.8 202.273C316.4 227.653 268.95 257.136 223.3 282.668C216.8 286.315 199.9 297.663 194.3 297.663C186.2 297.663 173.65 283.782 192.7 273.499ZM215.8 392.749H404.051C411.251 392.749 413.051 407.49 402.101 407.49H182.6V428.058H652.751V407.49H435.251C424.051 407.49 426.651 392.749 433.301 392.749H619.601V306.528C619.601 303.691 616.401 302.83 613.951 301.412C576.251 279.578 530.001 253.742 493.951 231.807C485.401 226.64 477.101 222.334 468.601 217.116C454.901 208.808 430.551 195.89 418.651 187.886C413.151 189.203 279.95 267.116 265.35 275.93L220.8 301.766C218.4 303.134 215.8 303.641 215.8 306.528V392.749ZM209.9 460.378H299.65V443.711H209.9V460.378ZM372.801 460.378H462.551V443.711H372.801V460.378ZM535.701 460.378H625.451V443.711H535.701V460.378ZM230.4 546.649H280.15V476.031H230.4V546.649ZM294.8 546.649C318.3 546.649 315.25 552.374 315.25 579.02H357.2C357.2 551.107 355.25 546.649 377.701 546.649V476.082C353.9 476.082 357.2 467.014 357.2 443.711H315.25C315.25 456.781 317.6 468.889 309.9 473.65C305.65 476.234 300.25 476.082 294.8 476.082V546.649ZM393.301 546.649H442.101V476.082H393.301V546.649ZM457.701 546.649C480.101 546.649 478.151 551.057 478.151 578.969H520.101C520.101 552.12 517.151 546.649 540.601 546.649V476.031C535.151 476.031 529.701 476.183 525.501 473.6C517.751 468.889 520.101 456.731 520.101 443.711H478.151C478.151 466.964 481.451 476.031 457.701 476.031V546.649ZM556.201 546.649H604.951V476.082H556.201V546.649ZM209.9 578.969H299.65V562.353H209.9V578.969ZM372.801 578.969H462.551V562.303H372.801V578.969ZM667.401 403.488V430.844C666.451 443.255 661.501 443.661 640.101 443.661C640.101 468.889 644.001 476.031 619.601 476.031V546.599C643.301 546.599 640.101 550.803 640.101 578.969C649.001 578.969 667.401 575.879 667.401 589.76V617.977C666.351 625.271 663.151 629.932 654.701 629.932H436.201C426.451 629.932 424.401 614.228 439.151 614.228H652.751V593.66H182.6V614.228H399.151C414.301 614.228 411.951 629.932 402.101 629.932H180.65C174.2 629.932 168 625.373 168 619.142V592.799C168.75 578.362 173.25 578.969 195.3 578.969C195.3 550.803 192.1 546.599 215.8 546.599V476.031C191.35 476.031 195.3 468.889 195.3 443.661C187 443.661 168 445.738 168 432.921V405.515C168.9 391.077 174.25 392.698 200.15 392.698V312.303C194.15 312.303 194.4 313.468 187.9 311.898C175.65 308.96 168 299.031 168 284.846C168 276.944 171.4 271.067 175.5 266.913C181.6 260.783 271.25 210.834 286.8 201.361C292.35 198.018 297.1 195.282 302.9 192.04L367.151 154.654C372.701 151.31 377.651 148.727 383.251 145.333C405.801 131.756 415.201 123.6 436.651 136.417L548.701 201.209C554.351 204.401 559.001 207.44 564.701 210.682L645.151 257.237C655.401 263.367 667.401 268.686 667.401 284.846C667.401 294.725 664.401 301.867 656.851 307.592C648.301 314.026 641.251 312.303 635.201 312.303V392.698C648.651 392.698 667.401 389.405 667.401 403.488ZM535.701 578.969H625.451V562.303H535.701V578.969ZM287.95 308.402C287.95 295.89 296.25 298.575 313.3 298.575C323.4 298.575 332.85 308.048 332.85 318.18C332.85 327.045 331.25 325.17 329.9 330.945C343.9 340.317 340.55 371.118 311.35 371.118C301.7 371.118 287.95 373.499 287.95 362.303V308.402ZM317.2 320.155C317.2 312.962 314.85 314.279 303.55 314.279V325.069H310.4C313.7 325.069 317.2 323.347 317.2 320.155ZM323.1 347.612C323.1 343.762 318.65 339.811 314.3 339.811H303.55V355.464H315.25C319.9 355.464 323.1 351.513 323.1 347.612ZM425.501 304.502C425.501 301.31 429.751 298.625 433.301 298.625C439.301 298.625 453.551 323.651 457.101 328.565L464.501 338.798C464.501 330.642 464.551 322.435 464.501 314.279C464.451 305.718 463.751 298.625 472.301 298.625C475.401 298.625 477.801 300.652 478.701 302.982L480.101 361.341C480.101 366.609 476.151 370.155 470.351 370.155C465.151 370.155 450.801 345.636 447.101 340.621L440.151 330.945C440.151 341.077 440.351 351.361 440.201 361.442C440.001 375.373 425.501 371.32 425.501 365.292V304.502ZM350.4 363.316C350.4 359.821 361.2 333.63 363.2 328.109C365.2 322.486 367.301 316.913 369.601 311.037C371.951 305.16 372.751 298.575 380.651 298.575C387.801 298.575 389.501 305.667 391.451 311.239C394.301 319.193 409.901 358.149 409.901 363.316C409.901 372.84 400.701 371.118 398.151 369.243C395.601 367.42 393.201 360.125 392.351 356.427H368.901C366.851 360.378 365.551 367.622 361.65 369.801C356.6 372.688 350.4 369.395 350.4 363.316ZM374.751 341.736H386.501C385.751 338.696 382.101 327.855 379.651 326.032C379.201 331.401 375.201 336.366 374.751 341.736ZM387.451 245.637C387.451 229.071 402.201 214.279 418.651 214.279C435.351 214.279 449.901 228.869 449.901 245.637C449.901 262.455 435.351 277.045 418.651 277.045C402.201 277.045 387.451 262.202 387.451 245.637ZM434.301 247.612C434.301 222.435 403.051 226.082 403.051 245.637C403.051 267.42 434.301 265.089 434.301 247.612ZM500.601 306.427C500.601 295.738 513.301 294.978 515.851 303.894C516.901 307.541 516.201 312.354 516.201 316.255C518.851 315.545 529.501 305.059 533.001 301.766C539.801 295.383 546.451 299.284 546.451 306.427C546.451 314.178 527.551 324.157 521.101 333.884C527.551 338.24 531.401 342.8 536.951 348.321C539.801 351.209 541.901 353.337 544.751 356.173C554.551 365.697 544.551 372.131 539.301 370.56C533.501 368.787 523.801 354.654 516.201 349.588C516.201 353.083 516.601 361.138 516.001 364.076C513.951 374.258 500.601 372.536 500.601 362.303V306.427Z" fill="white"/>
</g>
<defs>
<clipPath id="clip0_0_1">
<rect width="792" height="824" fill="white"/>
</clipPath>
<clipPath id="clip1_0_1">
<rect width="500" height="500" fill="white" transform="translate(167 130)"/>
</clipPath>
</defs>
</svg>
