<svg width="1000" height="993" viewBox="0 0 1000 993" fill="none" xmlns="http://www.w3.org/2000/svg">
<rect width="1000" height="993" fill="#1E1E1E"/>
<g clip-path="url(#clip0_0_1)">
<path fill-rule="evenodd" clip-rule="evenodd" d="M511.6 29.8C588.1 29.8 660 50.1 722.1 85.4L691.1 97.8C637.1 70.7 576.1 55.4 511.6 55.4C290.6 55.4 111.4 234.7 111.4 455.8C111.4 625.8 217.2 771 366.6 829.1L356.4 852.6C198 790.5 85.8 636.3 85.8 455.8C85.8 220.5 276.5 29.8 511.6 29.8ZM511.6 91C713 91 876.2 254.3 876.2 455.8C876.2 657.3 713 820.6 511.6 820.6C310.2 820.6 147 657.3 147 455.8C147 254.3 310.2 91 511.6 91Z" fill="#303289"/>
</g>
<path fill-rule="evenodd" clip-rule="evenodd" d="M315.675 194.4H686.266V240.424C690.868 240.52 698.874 242.582 703.141 243.828C751.61 257.827 778.554 315.022 755.446 360.902C750.364 371.018 746.768 376.388 739.146 383.962C725.29 397.674 707.312 407.358 686.266 409.132V596.009C695.95 596.249 717.092 607.468 725.051 614.084C730.804 618.83 729.317 623.816 733.584 623.816H763.5V639.157C714.264 639.157 740.776 637.335 721.743 651.382C716.996 654.834 711.867 657.663 706.593 660.252C697.772 664.518 681.903 669.84 668.911 669.84H320.517C302.682 669.84 284.8 652.054 284.8 634.363V628.61C284.8 613.077 300.956 594.427 315.675 594.092V194.4ZM617.996 265.594C630.413 253.273 651.556 240.856 670.828 240.424V209.741H331.112V593.133H392.909V575.874C392.909 561.108 406.956 547.157 421.866 547.157H549.248C557.781 547.157 564.877 551.615 569.287 555.978C579.355 565.95 580.937 580.764 574.321 593.133H670.828V409.132C649.302 407.358 631.708 397.482 617.517 383.483C599.73 365.888 593.642 347.143 593.642 319.96C593.642 299.585 604.812 278.634 617.996 265.594ZM650.261 387.414C706.545 414.453 768.87 352.56 741.639 296.612C707.408 226.377 609.079 254.903 609.079 324.754C609.079 352.944 625.955 375.764 650.261 387.414ZM516.407 577.792H531.845C536.687 598.454 553.61 593.948 558.932 587.428C565.788 579.038 562.815 562.498 544.405 562.498H426.66C405.949 562.498 408.346 578.702 408.346 593.133H520.291C518.757 590.304 516.407 584.935 516.407 580.668V577.792ZM692.354 649.033C724.955 636.377 725.003 626.884 693.073 614.227C682.43 610.008 669.39 608.474 655.391 608.474V654.499C668.863 654.499 682.478 652.869 692.354 649.033ZM325.311 654.499H408.346V608.474H325.311C310.641 608.474 300.237 619.213 300.237 631.486C300.237 643.616 310.832 654.499 325.311 654.499ZM423.784 654.499H639.954V608.474H423.784V654.499ZM346.549 409.132H531.845V531.815H346.549V409.132ZM361.986 439.815H408.346V424.473H361.986V439.815ZM423.784 439.815H454.658V424.473H423.784V439.815ZM470.096 439.815H516.407V424.473H470.096V439.815ZM361.986 516.522H377.472V455.156H361.986V516.522ZM392.909 516.522H408.346V455.204H392.909V516.522ZM423.784 516.522H454.658V455.156H423.784V516.522ZM470.096 516.522H485.533V455.156H470.096V516.522ZM500.97 516.522H516.407V455.204H500.97V516.522ZM346.549 225.131H547.33V332.473H346.549V225.131ZM361.986 317.179H531.845V240.472H361.986V317.179ZM346.549 378.545H547.33V393.886H346.549V378.545ZM641.871 290.332C643.214 288.414 644.46 286.544 645.707 284.579C647.001 282.565 647.96 279.785 650.597 279.785H709.47C713.736 279.785 711.531 282.182 710.141 284.147C708.463 286.544 707.312 287.503 706.545 290.332H690.149C691.779 292.777 693.217 294.647 694.032 298.002H712.346C711.147 302.413 707.744 304.139 706.545 308.55H694.032C694.032 318.138 689.909 321.878 683.389 324.85C678.643 327.007 669.678 330.459 663.11 330.603C667.76 337.507 697.58 368.094 698.826 372.744H680.513C679.65 369.628 678.691 369.436 676.39 367.231L649.302 336.644C644.988 331.658 645.755 335.445 645.755 322.932C656.542 322.932 664.692 324.275 673.225 318.57C677.588 315.645 678.259 314.015 679.506 308.55H641.871C642.734 305.338 646.714 300.879 648.631 298.002H677.588C671.595 289.133 656.733 290.332 641.871 290.332ZM377.472 347.862H547.33V363.203H377.472V347.862ZM547.33 516.522H655.391V531.863H547.33V516.522ZM547.33 424.521H655.391V439.863H547.33V424.521ZM547.33 455.204H655.391V470.497H547.33V455.204ZM578.205 485.887H655.391V501.228H578.205V485.887ZM547.33 485.887H562.767V501.228H547.33V485.887Z" fill="white"/>
<defs>
<clipPath id="clip0_0_1">
<rect width="792" height="824" fill="white" transform="translate(85 29)"/>
</clipPath>
</defs>
</svg>
