<svg width="792" height="824" viewBox="0 0 792 824" fill="none" xmlns="http://www.w3.org/2000/svg">
<rect width="792" height="824" fill="#1E1E1E"/>
<g clip-path="url(#clip0_0_1)">
<path fill-rule="evenodd" clip-rule="evenodd" d="M426.6 0.799988C503.1 0.799988 575 21.1 637.1 56.4L606.1 68.8C552.1 41.7 491.1 26.4 426.6 26.4C205.6 26.4 26.4 205.7 26.4 426.8C26.4 596.8 132.2 742 281.6 800.1L271.4 823.6C113 761.5 0.799988 607.3 0.799988 426.8C0.799988 191.5 191.5 0.799988 426.6 0.799988ZM426.6 62C628 62 791.2 225.3 791.2 426.8C791.2 628.3 628 791.6 426.6 791.6C225.2 791.6 62 628.3 62 426.8C62 225.3 225.2 62 426.6 62Z" fill="#303289"/>
</g>
<path d="M255.137 374C285.02 374 309.274 397.968 309.274 427.5C309.274 457.032 285.02 481 255.137 481C225.253 481 201 457.032 201 427.5C201 397.968 225.253 374 255.137 374ZM417.548 374C447.431 374 471.685 397.968 471.685 427.5C471.685 457.032 447.431 481 417.548 481C387.664 481 363.411 457.032 363.411 427.5C363.411 397.968 387.664 374 417.548 374ZM579.958 374C609.842 374 634.095 397.968 634.095 427.5C634.095 457.032 609.842 481 579.958 481C550.075 481 525.821 457.032 525.821 427.5C525.821 397.968 550.075 374 579.958 374Z" fill="white"/>
<defs>
<clipPath id="clip0_0_1">
<rect width="792" height="824" fill="white"/>
</clipPath>
</defs>
</svg>
