<svg width="1000" height="1030" viewBox="0 0 1000 1030" fill="none" xmlns="http://www.w3.org/2000/svg">
<rect width="1000" height="1030" fill="#1E1E1E"/>
<g clip-path="url(#clip0_0_1)">
<path fill-rule="evenodd" clip-rule="evenodd" d="M426.6 0.799988C503.1 0.799988 575 21.1 637.1 56.4L606.1 68.8C552.1 41.7 491.1 26.4 426.6 26.4C205.6 26.4 26.4 205.7 26.4 426.8C26.4 596.8 132.2 742 281.6 800.1L271.4 823.6C113 761.5 0.799988 607.3 0.799988 426.8C0.799988 191.5 191.5 0.799988 426.6 0.799988ZM426.6 62C628 62 791.2 225.3 791.2 426.8C791.2 628.3 628 791.6 426.6 791.6C225.2 791.6 62 628.3 62 426.8C62 225.3 225.2 62 426.6 62Z" fill="#303289"/>
</g>
<path fill-rule="evenodd" clip-rule="evenodd" d="M515.992 274.326L491.633 268.534C484.535 266.414 480.348 249.091 459.768 249.091H396.546L407.577 205.653C411.305 191.432 412.939 172.351 429.689 172.351C436.328 172.351 499.089 190.243 511.192 193.346L591.929 215.168C605.82 218.633 618.586 222.615 632.272 226.079C649.38 230.371 653.057 238.283 647.695 256.279C640.443 280.532 633.192 312.127 626.042 337.518L593.512 459.299C585.597 491.722 574.924 527.351 566.651 560.447L550.259 621.777C539.994 656.579 541.986 658.544 496.587 645.202L464.823 636.773L473.454 633.36C476.671 631.912 478.816 630.258 481.165 627.982C498.119 611.59 492.91 591.008 492.91 564.067C492.91 530.109 492.91 496.135 492.91 462.143C495.106 463.177 498.681 464.056 501.949 464.16L508.894 438.769C509.762 435.873 510.733 433.133 510.988 429.823L495.668 426.307C492.093 425.79 492.808 428.323 492.859 420.877L492.91 290.46C497.2 290.822 501.592 292.529 505.83 293.666C512.009 295.321 511.09 296.872 512.877 302.716L529.678 358.564C531.313 364.356 532.896 364.098 546.122 367.2C546.122 345.585 545.152 326.762 545.152 304.629L566.855 310.007C572.779 311.921 573.341 317.712 579.009 327.072C582.839 333.381 585.342 331.002 591.317 333.898C591.317 301.63 584.78 312.955 597.955 293.098C600.151 289.788 604.032 285.599 604.39 281.411C594.738 280.583 598.415 277.015 589.529 282.6L576.252 290.46C568.081 290.46 558.174 285.082 550.156 284.41C554.855 275.516 581.103 234.353 582.278 229.906C576.762 229.44 573.545 226.855 568.234 226.855C565.017 226.855 546.735 246.66 542.292 250.229L515.992 274.326ZM427.187 154.2H430.2C438.013 154.459 446.133 156.837 454.61 159.371C480.756 167.18 641.26 207.36 651.372 213.927C662.045 220.805 670.573 233.888 667.509 251.004C666.079 258.658 663.526 266.363 661.789 273.551C659.951 281.1 658.112 287.461 655.968 294.959C653.721 302.871 652.087 309.387 650.146 317.35C634.417 381.162 614.093 449.991 597.547 514.837L585.597 559.413C578.448 584.027 569.051 625.448 562.055 646.805C559.961 653.114 555.825 659.837 550.718 663.663C544.182 668.576 538.156 670.696 532.232 671.11H526.819C519.72 670.644 512.622 668.317 504.707 666.301L445.316 650.27C427.34 644.995 402.215 636.773 383.422 636.773H206.73C195.137 636.773 176.6 639.462 176.6 616.606V269.31C176.6 244.851 198.61 249.091 211.734 249.091H377.396C379.643 239.473 382.094 230.113 384.852 220.236C388.784 206.274 394.657 175.764 403.287 166.042C410.743 157.613 418.761 154.51 427.187 154.2ZM474.832 601.454V284.462C474.832 275.257 467.172 267.293 459.768 267.293H194.678V618.622H458.746C468.04 618.622 474.832 610.762 474.832 601.454ZM229.812 401.537C229.812 364.201 258.767 324.28 293.646 310.266C386.384 272.982 467.785 365.856 431.936 449.318C422.131 472.123 403.338 492.808 381.124 503.202C333.172 525.645 280.93 511.734 249.013 469.072L239.821 453.093C230.476 431.943 229.812 425.324 229.812 401.537ZM309.119 324.848C300.693 325.521 283.892 336.484 278.275 341.293C272.76 345.999 259.635 360.891 257.899 368.235H295.076C295.28 358.202 305.289 332.088 309.119 324.848ZM365.497 335.76L375.405 368.235H411.56C411.049 362.029 401.551 351.325 396.904 346.619C394.912 344.654 393.227 343.103 391.235 341.241C384.699 335.087 371.319 327.175 361.361 324.848C361.974 329.658 363.863 331.674 365.497 335.76ZM326.533 331.209C324.439 335.449 322.652 338.397 321.069 342.844C318.26 350.653 315.196 359.444 313.154 368.235H356.305C355.744 361.564 350.535 347.084 347.879 340.362C346.143 336.018 344.049 332.398 341.956 328.158C336.951 318.074 337.513 319.781 332.202 319.781C331.538 322.366 328.116 328.055 326.533 331.209ZM292.063 386.385H252.894C246.154 386.385 247.788 415.396 249.115 422.532C251.056 433.081 247.583 429.823 292.063 429.823C292.063 424.083 291.042 422.842 291.042 416.688V397.503C291.042 391.918 292.063 391.505 292.063 386.385ZM377.396 429.823H419.578C419.68 425.583 421.059 422.273 421.467 418.55C423.816 395.176 419.782 395.021 419.578 386.385H378.417V391.453C378.417 399.986 380.307 423.773 377.396 429.823ZM359.318 386.385H310.141C310.141 392.798 309.119 394.866 309.119 401.537L310.141 429.823H359.318C360.493 415.758 362.536 400.244 359.318 386.385ZM278.785 474.502C282.411 477.76 288.692 482.104 293.033 484.379C295.74 485.723 298.497 487.12 301.204 488.257C303.91 489.343 306.719 490.274 309.119 491.412C308.251 487.533 296.301 462.97 295.076 448.026H257.899C263.823 459.247 269.542 466.28 278.785 474.502ZM317.035 461.264C319.946 470.83 325.052 482.983 330.108 491.515C331.436 493.79 331.231 495.445 334.244 495.445C343.743 495.445 354.824 454.438 356.305 448.026H313.154C314.584 450.973 316.013 457.851 317.035 461.264ZM361.361 491.412C365.957 488.206 372.085 489.395 391.337 474.14C396.955 469.641 398.129 467.624 402.725 462.35C405.075 459.712 410.743 451.49 411.56 448.026H374.383C374.383 455.472 368.357 473.468 365.038 480.966C364.068 483.086 363.914 483.655 362.944 485.982C362.433 487.171 362.229 487.637 361.616 488.671L360.187 490.584L361.361 491.412ZM246.868 566.135H422.591V584.286H246.868V566.135ZM494.902 627.724C494.902 622.242 508.383 573.84 510.171 567.376C515.38 548.139 521.406 527.455 526.002 507.597C530.496 507.701 538.462 510.545 543.109 511.631C543.109 519.595 515.737 615.52 511.958 631.757C506.903 630.568 500.672 627.879 494.902 627.724ZM535.041 473.261C536.879 469.383 538.615 460.488 539.943 455.989C541.271 451.594 543.722 443.475 544.079 438.924C549.901 440.269 556.336 442.596 562.157 443.992L553.118 478.329C549.39 477.967 537.849 474.605 535.041 473.261ZM501.949 401.589C502.97 397.038 505.268 386.954 506.954 383.386C511.958 385.817 519.414 386.23 524.01 388.454C521.916 392.798 521.15 401.071 519.005 405.622C513.541 405.157 507.975 402.054 501.949 401.589ZM535.041 409.656C537.236 405.105 538.002 396.831 540.096 392.487C544.131 393.418 553.884 395.952 557.153 397.555C554.957 402.157 554.548 409.656 552.148 414.672C548.063 413.741 538.309 411.207 535.041 409.656ZM569.205 419.739C569.205 413.017 571.911 407.173 573.239 401.589C578.141 402.726 585.291 405.208 590.295 405.622C590.04 408.673 586.414 421.446 585.24 423.773C582.839 422.583 572.779 419.843 569.205 419.739Z" fill="white"/>
<defs>
<clipPath id="clip0_0_1">
<rect width="792" height="824" fill="white"/>
</clipPath>
</defs>
</svg>
